<?xml version="1.0" encoding="UTF-8" standalone="no"?>
<!-- Created with Inkscape (http://www.inkscape.org/) -->

<svg
   xmlns:dc="http://purl.org/dc/elements/1.1/"
   xmlns:cc="http://creativecommons.org/ns#"
   xmlns:rdf="http://www.w3.org/1999/02/22-rdf-syntax-ns#"
   xmlns:svg="http://www.w3.org/2000/svg"
   xmlns="http://www.w3.org/2000/svg"
   xmlns:sodipodi="http://sodipodi.sourceforge.net/DTD/sodipodi-0.dtd"
   xmlns:inkscape="http://www.inkscape.org/namespaces/inkscape"
   width="210mm"
   height="297mm"
   viewBox="0 0 744.09448819 1052.3622047"
   id="svg2"
   version="1.1"
   inkscape:version="0.91 r13725"
   sodipodi:docname="icon.svg">
  <defs
     id="defs4" />
  <sodipodi:namedview
     id="base"
     pagecolor="#ffffff"
     bordercolor="#666666"
     borderopacity="1.0"
     inkscape:pageopacity="0.0"
     inkscape:pageshadow="2"
     inkscape:zoom="0.175"
     inkscape:cx="380.29757"
     inkscape:cy="438.16171"
     inkscape:document-units="px"
     inkscape:current-layer="layer1"
     showgrid="false"
     showborder="false"
     inkscape:object-paths="false"
     inkscape:object-nodes="true"
     inkscape:window-width="1366"
     inkscape:window-height="706"
     inkscape:window-x="-8"
     inkscape:window-y="-8"
     inkscape:window-maximized="1" />
  <metadata
     id="metadata7">
    <rdf:RDF>
      <cc:Work
         rdf:about="">
        <dc:format>image/svg+xml</dc:format>
        <dc:type
           rdf:resource="http://purl.org/dc/dcmitype/StillImage" />
        <dc:title></dc:title>
      </cc:Work>
    </rdf:RDF>
  </metadata>
  <g
     inkscape:label="Layer 1"
     inkscape:groupmode="layer"
     id="layer1">
    <path
       style="opacity:1;fill:#999999;fill-opacity:1;fill-rule:nonzero;stroke:none;stroke-width:7;stroke-linecap:square;stroke-linejoin:bevel;stroke-miterlimit:4;stroke-dasharray:none;stroke-dashoffset:74;stroke-opacity:1"
       d="M -205.0957 -473.81836 C -439.35856 -473.81836 -627.95314 -285.2238 -627.95312 -50.960938 L -627.95312 1103.3242 C -627.95312 1337.5871 -439.35856 1526.1816 -205.0957 1526.1816 L 949.18945 1526.1816 C 1183.4523 1526.1816 1372.0469 1337.5871 1372.0469 1103.3242 L 1372.0469 -50.960938 C 1372.0469 -285.2238 1183.4523 -473.81836 949.18945 -473.81836 L -205.0957 -473.81836 z M 76.054688 -280.89648 L 292.16602 -280.89648 L 25.203125 181.49609 L 432.07227 181.49609 L 284.72266 436.71289 L -122.14648 436.71289 L -373.2793 871.6875 L -589.38867 871.6875 L 76.054688 -280.89648 z M 724.38477 -280.89648 L 940.49414 -280.89648 L 686.56836 158.91602 L 470.45898 158.91602 L 724.38477 -280.89648 z M 457.66992 180.67578 L 1333.4844 180.67578 L 1185.6602 436.71289 L 527.2793 436.71289 L 376.60547 697.68945 L 1034.9844 697.68945 L 892.86523 943.84961 L 234.48438 943.84961 L 9.6582031 1333.2598 L -207.77344 1333.2598 L 457.66992 180.67578 z "
       id="rect4164"
       inkscape:export-filename="C:\Users\CoOk13 M0NsT3R\rect4164.png"
       inkscape:export-xdpi="1.35"
       inkscape:export-ydpi="1.35" />
  </g>
</svg>
